<?xml version="1.0" encoding="UTF-8"?>
<svg width="16px" height="16px" viewBox="0 0 16 16" version="1.1" xmlns="http://www.w3.org/2000/svg" xmlns:xlink="http://www.w3.org/1999/xlink">
    <!-- Generator: Sketch 44.1 (41455) - http://www.bohemiancoding.com/sketch -->
    <title>Untitled 2</title>
    <desc>Created with Sketch.</desc>
    <defs></defs>
    <g id="Page-1" stroke="none" stroke-width="1" fill="none" fill-rule="evenodd">
        <g id="github" fill-rule="nonzero" fill="#828282">
            <path d="M7.999,0.431 C3.714,0.431 0.239,3.905 0.239,8.192 C0.239,11.62 2.462,14.529 5.546,15.555 C5.934,15.626 6.076,15.387 6.076,15.181 C6.076,14.997 6.069,14.509 6.066,13.861 C3.907,14.33 3.452,12.821 3.452,12.821 C3.099,11.925 2.59,11.686 2.59,11.686 C1.885,11.205 2.643,11.214 2.643,11.214 C3.422,11.269 3.832,12.014 3.832,12.014 C4.524,13.2 5.648,12.857 6.09,12.659 C6.161,12.157 6.361,11.816 6.583,11.622 C4.86,11.425 3.049,10.76 3.049,7.786 C3.049,6.939 3.351,6.246 3.848,5.704 C3.768,5.507 3.501,4.718 3.924,3.65 C3.924,3.65 4.576,3.441 6.058,4.446 C6.677,4.273 7.34,4.187 8,4.184 C8.659,4.187 9.323,4.273 9.943,4.445 C11.425,3.441 12.075,3.649 12.075,3.649 C12.498,4.717 12.232,5.506 12.152,5.703 C12.649,6.245 12.95,6.938 12.95,7.785 C12.95,10.766 11.136,11.422 9.407,11.614 C9.686,11.854 9.934,12.327 9.934,13.051 C9.934,14.088 9.924,14.925 9.924,15.18 C9.924,15.388 10.064,15.629 10.458,15.553 C13.539,14.525 15.76,11.618 15.76,8.191 C15.76,3.906 12.285,0.431 7.999,0.431 Z" id="Shape"></path>
        </g>
    </g>
</svg>