<?xml version="1.0" encoding="UTF-8"?>
<svg width="16px" height="16px" viewBox="0 0 16 16" version="1.1" xmlns="http://www.w3.org/2000/svg" xmlns:xlink="http://www.w3.org/1999/xlink">
    <!-- Generator: Sketch 44.1 (41455) - http://www.bohemiancoding.com/sketch -->
    <title>Untitled</title>
    <desc>Created with Sketch.</desc>
    <defs></defs>
    <g id="Page-1" stroke="none" stroke-width="1" fill="none" fill-rule="evenodd">
        <g id="stackoverflow" fill-rule="nonzero" fill="#828282">
            <polygon id="Shape" points="11.3454545 14.5090909 11.3454545 10.2909091 12.7454545 10.2909091 12.7454545 15.9090909 0.109090909 15.9090909 0.109090909 10.2909091 1.50909091 10.2909091 1.50909091 14.5090909"></polygon>
            <path d="M3.05454545,9.89090909 L9.92727273,11.3272727 L10.2181818,9.94545455 L3.34545455,8.50909091 L3.05454545,9.89090909 Z M3.96363636,6.61818182 L10.3272727,9.58181818 L10.9090909,8.30909091 L4.54545455,5.32727273 L3.96363636,6.61818182 Z M5.72727273,3.49090909 L11.1272727,7.98181818 L12.0181818,6.90909091 L6.61818182,2.41818182 L5.72727273,3.49090909 Z M9.21818182,0.163636364 L8.09090909,1 L12.2727273,6.63636364 L13.4,5.8 L9.21818182,0.163636364 Z M2.90909091,13.0909091 L9.92727273,13.0909091 L9.92727273,11.6909091 L2.90909091,11.6909091 L2.90909091,13.0909091 Z" id="Shape"></path>
        </g>
    </g>
</svg>