<?xml version="1.0" encoding="UTF-8"?>
<svg width="16px" height="14px" viewBox="0 0 16 14" version="1.1" xmlns="http://www.w3.org/2000/svg" xmlns:xlink="http://www.w3.org/1999/xlink">
    <!-- Generator: Sketch 44.1 (41455) - http://www.bohemiancoding.com/sketch -->
    <title>Untitled</title>
    <desc>Created with Sketch.</desc>
    <defs></defs>
    <g id="Page-1" stroke="none" stroke-width="1" fill="none" fill-rule="evenodd">
        <g id="twitter" fill-rule="nonzero" fill="#828282">
            <path d="M15.969,2.058 C15.383,2.318 14.752,2.494 14.091,2.573 C14.766,2.168 15.285,1.528 15.529,0.764 C14.897,1.139 14.197,1.411 13.453,1.557 C12.857,0.921 12.007,0.524 11.066,0.524 C9.26,0.524 7.796,1.988 7.796,3.794 C7.796,4.05 7.825,4.3 7.881,4.539 C5.163,4.404 2.753,3.102 1.14,1.124 C0.859,1.607 0.698,2.168 0.698,2.767 C0.698,3.901 1.275,4.902 2.153,5.489 C1.616,5.472 1.112,5.325 0.671,5.08 C0.671,5.094 0.671,5.107 0.671,5.121 C0.671,6.705 1.798,8.027 3.294,8.327 C3.02,8.402 2.731,8.442 2.433,8.442 C2.222,8.442 2.017,8.421 1.818,8.383 C2.234,9.682 3.442,10.628 4.873,10.654 C3.754,11.531 2.344,12.054 0.812,12.054 C0.548,12.054 0.288,12.039 0.032,12.008 C1.479,12.936 3.198,13.477 5.045,13.477 C11.06,13.477 14.349,8.494 14.349,4.173 C14.349,4.031 14.346,3.89 14.34,3.75 C14.976,3.29 15.531,2.714 15.969,2.058 Z" id="Shape"></path>
        </g>
    </g>
</svg>